<?xml version="1.0" encoding="utf-8"?>
<!-- Generator: Adobe Illustrator 22.1.0, SVG Export Plug-In . SVG Version: 6.00 Build 0)  -->
<svg version="1.1" id="Layer_1" xmlns="http://www.w3.org/2000/svg" xmlns:xlink="http://www.w3.org/1999/xlink" x="0px" y="0px"
	 viewBox="0 0 213 56" style="enable-background:new 0 0 213 56;" xml:space="preserve">
<style type="text/css">
	.st0{enable-background:new    ;}
	.st1{fill:#FFFFFF;}
</style>
<title>Logo</title>
<desc>Created with Sketch.</desc>
<g id="Page-1">
	<g id="home" transform="translate(-533.000000, -45.000000)">
		<g id="Logo" transform="translate(534.000000, 45.000000)">
			<g class="st0">
				<path class="st1" d="M7.9,13.3v3.6h5.7v1.9H7.9V24H5.8V11.4h8.5l0,1.9H7.9z"/>
				<path class="st1" d="M23.3,20.2c-0.2,0-0.4,0-0.6,0h-3V24h-2.1V11.4h5.1c3.2,0,5.1,1.6,5.1,4.3c0,2-0.9,3.4-2.6,4.1L28,24h-2.4
					L23.3,20.2z M22.7,18.3c1.9,0,3.1-0.8,3.1-2.5c0-1.7-1.1-2.4-3.1-2.4h-3v5H22.7z"/>
				<path class="st1" d="M33.9,21.2L32.7,24h-2.2L36,11.4h2.2L43.7,24h-2.3l-1.2-2.8H33.9z M37.1,13.7l-2.4,5.6h4.8L37.1,13.7z"/>
				<path class="st1" d="M55.7,24L49,15v9h-2.1V11.4H49l6.8,9.1v-9.1h2.1V24H55.7z"/>
				<path class="st1" d="M73,13.3l-1.2,1.5c-0.9-1-2.2-1.6-3.5-1.6c-2.5,0-4.5,1.9-4.5,4.4s2,4.4,4.5,4.4c1.3,0,2.6-0.6,3.5-1.5
					L73,22c-1.3,1.3-3.1,2.1-4.9,2.1c-3.7,0-6.6-2.8-6.6-6.4c0-3.6,2.9-6.3,6.6-6.3C70,11.3,71.8,12.1,73,13.3z"/>
				<path class="st1" d="M76.7,24V11.4h2.1V24H76.7z"/>
				<path class="st1" d="M92.2,12.6l-0.9,1.9c-1.4-0.8-2.7-1.2-3.7-1.2c-1.2,0-2.1,0.5-2.1,1.3c0,2.8,6.8,1.3,6.8,5.8
					c0,2.3-2,3.6-4.8,3.6c-2,0-3.9-0.8-5.1-2l0.9-1.8c1.3,1.2,2.9,1.8,4.3,1.8c1.5,0,2.4-0.6,2.4-1.5c0-2.8-6.8-1.2-6.8-5.7
					c0-2.2,1.9-3.5,4.6-3.5C89.4,11.3,91,11.8,92.2,12.6z"/>
				<path class="st1" d="M106.7,13.3l-1.2,1.5c-0.9-1-2.2-1.6-3.5-1.6c-2.5,0-4.5,1.9-4.5,4.4s2,4.4,4.5,4.4c1.3,0,2.6-0.6,3.5-1.5
					l1.3,1.4c-1.3,1.3-3.1,2.1-4.9,2.1c-3.7,0-6.6-2.8-6.6-6.4c0-3.6,2.9-6.3,6.6-6.3C103.7,11.3,105.4,12.1,106.7,13.3z"/>
				<path class="st1" d="M122.4,17.7c0,3.6-2.9,6.4-6.7,6.4c-3.8,0-6.7-2.8-6.7-6.4c0-3.6,2.9-6.4,6.7-6.4
					C119.5,11.3,122.4,14.1,122.4,17.7z M111.2,17.7c0,2.5,2.1,4.5,4.5,4.5s4.5-2,4.5-4.5s-2-4.4-4.5-4.4
					C113.2,13.3,111.2,15.2,111.2,17.7z"/>
				<path class="st1" d="M143.6,24l0-9.4l-4,8.1h-1.4l-4-8.1V24h-2V11.4h2.5l4.2,8.4l4.1-8.4h2.5V24H143.6z"/>
				<path class="st1" d="M150.4,24V11.4h2.1V24H150.4z"/>
				<path class="st1" d="M164.9,22.1V24h-7.6V11.4h2.1v10.7H164.9z"/>
				<path class="st1" d="M176,22.1V24h-7.6V11.4h2.1v10.7H176z"/>
				<path class="st1" d="M181.7,13.3v3.4h6.2v1.9h-6.2v3.5h7.1V24h-9.2V11.4h9v1.9H181.7z"/>
			</g>
			<g>
			</g>
			<g class="st0">
				<path class="st1" d="M200.2,20.2c-0.2,0-0.4,0-0.6,0h-3V24h-2.1V11.4h5.1c3.2,0,5.1,1.6,5.1,4.3c0,2-0.9,3.4-2.6,4.1l2.8,4.2
					h-2.4L200.2,20.2z M199.6,18.3c1.9,0,3.1-0.8,3.1-2.5c0-1.7-1.1-2.4-3.1-2.4h-3v5H199.6z"/>
			</g>
			<g class="st0">
				<path class="st1" d="M25.3,34.2c2.4,0,3.8,1.2,3.8,3.3c0,2.2-1.4,3.4-3.8,3.4h-2.6V44h-1.1v-9.8H25.3z M22.8,39.8h2.5
					c1.8,0,2.8-0.8,2.8-2.3c0-1.5-1-2.2-2.8-2.2h-2.5V39.8z"/>
				<path class="st1" d="M39.2,40.7h-6c0.2,1.4,1.2,2.4,2.7,2.4c0.9,0,1.7-0.3,2.3-0.9l0.6,0.6c-0.7,0.8-1.7,1.2-3,1.2
					c-2.2,0-3.7-1.5-3.7-3.7s1.5-3.7,3.7-3.7C38.2,36.6,39.3,38.2,39.2,40.7z M38.2,39.8c-0.1-1.4-1-2.3-2.5-2.3
					c-1.4,0-2.4,0.9-2.6,2.3H38.2z"/>
				<path class="st1" d="M44.2,38.3c0.5-1.1,1.4-1.7,2.6-1.7v1.1c-1.6,0-2.5,0.9-2.6,2.4V44h-1.1v-7.4h1.1V38.3z"/>
				<path class="st1" d="M54.6,37.2l-0.4,0.9c-0.6-0.4-1.3-0.6-2-0.6c-0.8,0-1.5,0.3-1.5,1c0,1.6,4.1,0.8,4.1,3.4
					c0,1.5-1.3,2.1-2.7,2.1c-1.1,0-2.1-0.4-2.8-1l0.4-0.8c0.6,0.6,1.6,0.9,2.5,0.9c0.9,0,1.6-0.3,1.6-1c0-1.8-4.1-0.9-4.1-3.5
					c0-1.4,1.2-2,2.6-2C53.1,36.6,54,36.8,54.6,37.2z"/>
				<path class="st1" d="M65.3,40.3c0,2.2-1.6,3.7-3.7,3.7c-2.2,0-3.7-1.5-3.7-3.7c0-2.2,1.6-3.7,3.7-3.7
					C63.8,36.6,65.3,38.1,65.3,40.3z M59,40.3c0,1.6,1.1,2.7,2.6,2.7c1.5,0,2.6-1.1,2.6-2.7c0-1.6-1.1-2.7-2.6-2.7
					C60.1,37.6,59,38.7,59,40.3z"/>
				<path class="st1" d="M76,39.4V44h-1.1v-4.3c0-1.3-0.8-2.1-2.1-2.1c-1.5,0-2.4,1-2.5,2.4v4h-1.1v-7.4h1.1v1.6
					c0.5-1.1,1.5-1.7,2.9-1.7C75,36.6,76,37.7,76,39.4z"/>
				<path class="st1" d="M85,42.9c-0.6,0.8-1.5,1.2-2.7,1.2c-1.5,0-2.5-1-2.5-2.3c0-1.3,1-2.1,2.8-2.1H85v-0.4c0-1.1-0.7-1.7-2-1.7
					c-0.8,0-1.6,0.3-2.3,0.8l-0.5-0.8c1-0.6,1.8-1,3-1c1.8,0,2.8,1,2.8,2.5l0,4.9H85V42.9z M85,41.5v-0.9h-2.3
					c-1.2,0-1.9,0.4-1.9,1.2s0.7,1.3,1.7,1.3C83.8,43.1,84.7,42.5,85,41.5z"/>
				<path class="st1" d="M90.6,44V33.6h1.1V44H90.6z"/>
				<path class="st1" d="M107.8,42.9V44h-5.4v-9.8h1.1v8.7H107.8z"/>
				<path class="st1" d="M112.7,34.5c0,0.4-0.3,0.8-0.7,0.8s-0.7-0.3-0.7-0.8s0.3-0.8,0.7-0.8S112.7,34.1,112.7,34.5z M111.4,44
					v-7.4h1.1V44H111.4z"/>
				<path class="st1" d="M118.4,35.9v1h2.1v0.9h-2.1V44h-1.1v-6.3h-1v-0.9h1V36c0-1.6,1.1-2.5,2.4-2.5c0.6,0,1.1,0.2,1.6,0.5
					l-0.4,0.9c-0.3-0.2-0.7-0.4-1.1-0.4C119,34.6,118.4,35,118.4,35.9z"/>
				<path class="st1" d="M129.9,40.7h-6c0.2,1.4,1.2,2.4,2.7,2.4c0.9,0,1.7-0.3,2.3-0.9l0.6,0.6c-0.7,0.8-1.7,1.2-3,1.2
					c-2.2,0-3.7-1.5-3.7-3.7s1.5-3.7,3.7-3.7C128.8,36.6,130,38.2,129.9,40.7z M128.9,39.8c-0.1-1.4-1-2.3-2.5-2.3
					c-1.4,0-2.4,0.9-2.6,2.3H128.9z"/>
				<path class="st1" d="M147.5,35.6l-0.7,0.9c-0.8-0.8-1.8-1.2-2.9-1.2c-2.2,0-4,1.7-4,3.9c0,2.1,1.8,3.9,4,3.9
					c1.1,0,2.1-0.4,2.9-1.2l0.7,0.8c-1,0.9-2.3,1.5-3.6,1.5c-2.8,0-5.1-2.2-5.1-5c0-2.7,2.3-4.9,5.1-4.9
					C145.3,34.2,146.6,34.7,147.5,35.6z"/>
				<path class="st1" d="M157.9,40.3c0,2.2-1.6,3.7-3.7,3.7s-3.7-1.5-3.7-3.7c0-2.2,1.6-3.7,3.7-3.7S157.9,38.1,157.9,40.3z
					 M151.5,40.3c0,1.6,1.1,2.7,2.6,2.7s2.6-1.1,2.6-2.7c0-1.6-1.1-2.7-2.6-2.7S151.5,38.7,151.5,40.3z"/>
				<path class="st1" d="M166.3,42.9c-0.6,0.8-1.5,1.2-2.7,1.2c-1.5,0-2.5-1-2.5-2.3c0-1.3,1-2.1,2.8-2.1h2.4v-0.4
					c0-1.1-0.7-1.7-2-1.7c-0.8,0-1.6,0.3-2.3,0.8l-0.5-0.8c1-0.6,1.8-1,3-1c1.8,0,2.8,1,2.8,2.5l0,4.9h-1.1V42.9z M166.3,41.5v-0.9
					H164c-1.2,0-1.9,0.4-1.9,1.2s0.7,1.3,1.7,1.3C165.1,43.1,166,42.5,166.3,41.5z"/>
				<path class="st1" d="M177.6,37.7l-0.6,0.8c-0.6-0.5-1.3-0.9-2.2-0.9c-1.5,0-2.6,1.1-2.6,2.7c0,1.6,1.1,2.7,2.6,2.7
					c1,0,1.8-0.3,2.3-1l0.6,0.7c-0.7,0.8-1.7,1.3-3,1.3c-2.1,0-3.7-1.5-3.7-3.7s1.5-3.7,3.7-3.7C175.9,36.6,176.9,37,177.6,37.7z"/>
			</g>
			<g>
			</g>
			<g class="st0">
				<path class="st1" d="M188.7,39.4V44h-1.1v-4.3c0-1.3-0.8-2.1-2.1-2.1c-1.6,0-2.5,1.1-2.5,2.7V44H182V33.6h1.1v4.7
					c0.5-1.1,1.5-1.7,2.9-1.7C187.7,36.6,188.7,37.7,188.7,39.4z"/>
			</g>
			<g id="Line">
				<rect x="-0.5" class="st1" width="212.2" height="2"/>
			</g>
			<g id="Line-Copy">
				<rect x="-1" y="54" class="st1" width="212.3" height="2"/>
			</g>
		</g>
	</g>
</g>
</svg>
